P2
60 40
255
255
255
255
255
255
255
255
255
255
255
255
255
255
255
255
255
255
255
255
255
255
255
255
255
255
255
255
255
255
255
255
255
255
255
255
255
255
255
255
255
255
255
255
255
255
255
255
255
255
255
255
255
255
255
255
255
255
255
255
255
255
255
255
255
255
255
255
255
255
255
255
255
255
255
255
255
255
255
255
255
255
255
255
255
255
255
255
255
255
255
255
255
255
255
255
255
255
255
255
255
255
255
255
255
255
255
255
255
255
255
255
255
255
255
255
255
255
255
255
255
255
255
255
121
121
121
121
121
121
121
121
121
121
121
121
121
121
121
121
121
121
121
121
121
121
121
121
121
121
121
121
121
121
121
121
121
121
121
121
121
121
121
121
121
121
121
121
121
121
121
121
121
121
121
121
121
121
255
255
255
255
255
255
0
0
0
0
0
0
0
0
0
0
0
0
0
0
0
0
0
0
0
0
0
0
0
0
0
0
0
0
0
0
0
0
0
0
0
0
0
0
0
0
0
0
0
0
0
0
0
0
0
0
0
0
0
0
255
255
255
255
255
255
0
0
0
0
0
0
0
0
0
0
0
0
0
0
0
0
0
0
0
0
0
0
0
0
0
0
102
83
0
0
0
0
0
0
0
0
0
0
0
0
0
0
0
0
0
0
0
0
0
0
0
0
0
0
255
255
255
255
255
255
0
0
0
0
0
0
0
0
0
0
0
0
0
0
0
0
0
0
0
0
0
0
0
0
31
158
96
96
169
0
0
0
0
0
0
0
0
0
0
0
0
0
0
0
0
0
0
0
0
0
0
0
0
0
255
255
255
255
255
255
0
0
0
0
0
0
0
0
0
0
0
0
0
0
0
0
0
0
0
0
0
0
0
117
96
96
96
96
96
185
107
8
0
0
0
0
0
0
0
0
0
0
0
0
0
0
0
0
0
0
0
0
0
0
255
255
255
255
255
255
0
0
0
0
0
0
0
0
0
0
0
0
0
0
0
0
0
0
0
0
0
62
117
96
96
96
96
96
96
96
96
175
44
0
0
0
0
0
0
0
0
0
0
0
0
0
0
0
0
0
0
0
0
0
255
255
255
255
255
255
0
0
0
0
0
0
0
0
0
0
0
0
0
0
0
0
0
0
0
0
124
96
96
96
96
96
96
96
96
96
96
96
96
100
63
0
0
0
0
0
0
0
0
0
0
0
0
0
0
0
0
0
0
0
255
255
255
255
255
255
0
0
0
0
0
0
0
0
0
0
0
0
0
0
0
0
0
0
85
117
96
96
96
96
96
96
142
177
96
96
96
96
96
96
142
87
0
0
0
0
0
0
0
0
0
0
0
0
0
0
0
0
0
0
255
255
255
255
255
255
0
0
0
0
0
0
0
0
0
0
0
0
0
0
0
0
0
121
96
96
96
96
162
153
65
0
0
0
0
54
152
172
96
96
96
96
105
1
0
0
0
0
0
0
0
0
0
0
0
0
0
0
0
0
255
255
255
255
255
255
0
0
0
0
0
0
0
0
0
0
0
0
0
0
0
95
165
96
96
96
96
156
1
0
0
0
0
0
0
0
0
1
152
96
96
96
96
177
88
0
0
0
0
0
0
0
0
0
0
0
0
0
0
0
255
255
255
255
255
255
0
0
0
0
0
0
0
0
0
0
0
0
0
8
147
96
96
96
96
96
99
0
0
0
0
0
0
0
0
0
0
0
0
97
96
96
96
96
96
160
4
0
0
0
0
0
0
0
0
0
0
0
0
0
255
255
255
255
255
255
0
0
0
0
0
0
0
0
0
0
0
0
112
115
96
96
96
96
96
105
0
0
0
0
0
0
0
0
0
0
0
0
0
0
97
96
96
96
96
96
174
111
0
0
0
0
0
0
0
0
0
0
0
0
255
255
255
255
255
255
0
0
0
0
0
0
0
0
0
0
50
188
96
96
96
96
96
96
164
0
0
0
0
0
0
0
0
0
0
0
0
0
0
0
0
155
96
96
96
96
96
96
188
48
0
0
0
0
0
0
0
0
0
0
255
255
255
255
255
255
0
0
0
0
0
0
0
0
0
125
96
96
96
96
96
96
96
181
183
192
204
209
193
176
104
56
2
0
0
0
0
0
0
0
0
0
197
96
96
96
96
96
96
96
132
0
0
0
0
0
0
0
0
0
255
255
255
255
255
255
0
0
0
0
0
0
0
59
142
96
96
96
96
96
96
96
185
92
255
255
255
255
255
255
255
255
255
196
167
61
0
0
0
0
0
0
164
96
96
96
96
96
96
96
96
189
67
0
0
0
0
0
0
0
255
255
255
255
255
255
0
0
0
0
0
0
117
96
96
96
96
96
96
96
96
96
96
148
105
25
10
10
47
93
174
231
253
255
255
255
248
135
1
0
0
0
81
96
96
96
96
96
96
96
96
96
96
154
1
0
0
0
0
0
255
255
255
255
255
255
0
0
0
0
90
123
96
96
96
96
96
96
96
96
96
96
96
0
0
0
0
0
0
0
0
0
0
146
158
252
254
255
247
139
0
0
0
96
96
96
96
96
96
96
96
96
96
96
184
94
0
0
0
0
255
255
255
255
255
255
0
0
1
166
96
96
96
96
96
96
96
96
96
96
96
96
156
0
0
0
0
0
0
0
0
0
0
0
0
0
66
237
255
255
246
52
0
136
96
96
96
96
96
96
96
96
96
96
96
96
174
0
0
0
255
255
255
255
255
255
0
0
0
155
96
96
96
96
96
96
96
96
96
96
96
96
190
0
0
0
0
0
0
0
0
0
0
0
0
0
0
0
70
237
255
255
186
130
96
96
96
96
96
96
96
96
96
96
96
96
149
0
0
0
255
255
255
255
255
255
0
0
0
0
72
170
96
96
96
96
96
96
96
96
96
96
96
0
0
0
0
0
0
0
0
0
0
0
0
0
0
0
0
0
136
255
254
114
96
96
96
96
96
96
96
96
96
96
188
63
0
0
0
0
255
255
255
255
255
255
0
0
0
0
0
0
142
96
96
96
96
96
96
96
96
96
96
104
0
0
0
0
0
0
0
0
0
0
0
0
0
0
0
0
0
128
239
124
96
96
96
96
96
96
96
96
96
133
0
0
0
0
0
0
255
255
255
255
255
255
0
0
0
0
0
0
0
55
154
96
96
96
96
96
96
96
96
182
0
0
0
0
0
0
0
0
0
0
0
0
0
0
0
0
0
0
174
96
96
96
96
96
96
96
96
159
54
0
0
0
0
0
0
0
255
255
255
255
255
255
0
0
0
0
0
0
0
0
0
120
96
96
96
96
96
96
96
96
39
0
0
0
0
0
0
0
0
0
0
0
0
0
0
0
0
21
96
96
96
96
96
96
96
189
116
1
0
0
0
0
0
0
0
0
255
255
255
255
255
255
0
0
0
0
0
0
0
0
0
0
36
127
96
96
96
96
96
96
182
0
0
0
0
0
0
0
0
0
0
0
0
0
0
0
0
176
96
96
96
96
96
96
143
21
0
0
0
0
0
0
0
0
0
0
255
255
255
255
255
255
0
0
0
0
0
0
0
0
0
0
0
0
107
174
96
96
96
96
96
133
0
0
0
0
0
0
0
0
0
0
0
0
0
0
131
96
96
96
96
96
153
101
0
0
0
0
0
0
0
0
0
0
0
0
255
255
255
255
255
255
0
0
0
0
0
0
0
0
0
0
0
0
0
2
171
96
96
96
96
96
134
0
0
0
0
0
0
0
0
0
0
0
0
133
96
96
96
96
96
142
1
0
0
0
0
0
0
0
0
0
0
0
0
0
255
255
255
255
255
255
0
0
0
0
0
0
0
0
0
0
0
0
0
0
0
91
141
96
96
96
96
184
44
0
0
0
0
0
0
0
0
32
180
96
96
96
96
176
84
0
0
0
0
0
0
0
0
0
0
0
0
0
0
0
255
255
255
255
255
255
0
0
0
0
0
0
0
0
0
0
0
0
0
0
0
0
0
154
96
96
96
96
96
159
108
0
1
0
0
107
179
96
96
96
96
96
150
1
0
0
0
0
0
0
0
0
0
0
0
0
0
0
0
0
255
255
255
255
255
255
0
0
0
0
0
0
0
0
0
0
0
0
0
0
0
0
0
0
69
144
96
96
96
96
96
96
96
96
96
96
96
96
96
96
190
63
0
0
0
0
0
0
0
0
0
0
0
0
0
0
0
0
0
0
255
255
255
255
255
255
0
0
0
0
0
0
0
0
0
0
0
0
0
0
0
0
0
0
0
0
135
96
96
96
96
96
96
96
96
96
96
96
96
137
0
0
0
0
0
0
0
0
0
0
0
0
0
0
0
0
0
0
0
0
255
255
255
255
255
255
0
0
0
0
0
0
0
0
0
0
0
0
0
0
0
0
0
0
0
0
0
57
193
96
96
96
96
96
96
96
96
191
55
0
0
0
0
0
0
0
0
0
0
0
0
0
0
0
0
0
0
0
0
0
255
255
255
255
255
255
0
0
0
0
0
0
0
0
0
0
0
0
0
0
0
0
0
0
0
0
0
0
0
121
178
96
96
96
96
158
117
0
0
0
0
0
0
0
0
0
0
0
0
0
0
0
0
0
0
0
0
0
0
0
255
255
255
255
255
255
0
0
0
0
0
0
0
0
0
0
0
0
0
0
0
0
0
0
0
0
0
0
0
0
35
171
96
96
180
21
0
0
0
0
0
0
0
0
0
0
0
0
0
0
0
0
0
0
0
0
0
0
0
0
255
255
255
255
255
255
0
0
0
0
0
0
0
0
0
0
0
0
0
0
0
0
0
0
0
0
0
0
0
0
0
0
105
103
0
0
0
0
0
0
0
0
0
0
0
0
0
0
0
0
0
0
0
0
0
0
0
0
0
0
255
255
255
255
255
255
0
0
0
0
0
0
0
0
0
0
0
0
0
0
0
0
0
0
0
0
0
0
0
0
0
0
0
0
0
0
0
0
0
0
0
0
0
0
0
0
0
0
0
0
0
0
0
0
0
0
0
0
0
0
255
255
255
255
255
255
69
69
69
69
69
69
69
69
69
69
69
69
69
69
69
69
69
69
69
69
69
69
69
69
69
69
69
69
69
69
69
69
69
69
69
69
69
69
69
69
69
69
69
69
69
69
69
69
69
69
69
69
69
69
255
255
255
255
255
255
255
255
255
255
255
255
255
255
255
255
255
255
255
255
255
255
255
255
255
255
255
255
255
255
255
255
255
255
255
255
255
255
255
255
255
255
255
255
255
255
255
255
255
255
255
255
255
255
255
255
255
255
255
255
255
255
255
255
255
255
255
255
255
255
255
255
255
255
255
255
255
255
255
255
255
255
255
255
255
255
255
255
255
255
255
255
255
255
255
255
255
255
255
255
255
255
255
255
255
255
255
255
255
255
255
255
255
255
255
255
255
255
255
255
255
255
255
